# xmcd
#
# Track frame offsets: 
#        150
#        20262
#        47790
#        78492
#        117255
#        162005
#        181890
#        211715
#        231115
#        258207
#
# Disc length: 3983 seconds
#
# Revision: 1
# Processed by: cddbd v1.5.2PL0 Copyright (c) Steve Scherf et al.
# Submitted via: ExactAudioCopy v0.99pb5
#
DISCID=720f8d0a
DTITLE=Miles Davis - Aura
DYEAR=1989
DGENRE=Jazz
TTITLE0=Intro
TTITLE1=White
TTITLE2=Yellow
TTITLE3=Orange
TTITLE4=Red
TTITLE5=Green
TTITLE6=Blue
TTITLE7=Electric Red
TTITLE8=Indigo
TTITLE9=Violet
EXTD=
EXTT0=
EXTT1=
EXTT2=
EXTT3=
EXTT4=
EXTT5=
EXTT6=
EXTT7=
EXTT8=
EXTT9=
PLAYORDER=
